<svg width="20" height="21" viewBox="0 0 20 21" fill="none" xmlns="http://www.w3.org/2000/svg">
<path d="M10 20.5996C8.63333 20.5996 7.34167 20.3369 6.125 19.8116C4.90833 19.2869 3.846 18.5703 2.938 17.6616C2.02933 16.7536 1.31267 15.6913 0.788 14.4746C0.262667 13.2579 0 11.9663 0 10.5996C0 9.21628 0.262667 7.92061 0.788 6.71261C1.31267 5.50394 2.02933 4.44561 2.938 3.53761C3.846 2.62894 4.90833 1.91194 6.125 1.38661C7.34167 0.861943 8.63333 0.599609 10 0.599609C11.3833 0.599609 12.679 0.861943 13.887 1.38661C15.0957 1.91194 16.154 2.62894 17.062 3.53761C17.9707 4.44561 18.6873 5.50394 19.212 6.71261C19.7373 7.92061 20 9.21628 20 10.5996V12.0496C20 13.0329 19.6627 13.8703 18.988 14.5616C18.3127 15.2536 17.4833 15.5996 16.5 15.5996C15.9 15.5996 15.3417 15.4663 14.825 15.1996C14.3083 14.9329 13.8833 14.5829 13.55 14.1496C13.1 14.5996 12.571 14.9539 11.963 15.2126C11.3543 15.4706 10.7 15.5996 10 15.5996C8.61667 15.5996 7.43767 15.1119 6.463 14.1366C5.48767 13.1619 5 11.9829 5 10.5996C5 9.21628 5.48767 8.03694 6.463 7.06161C7.43767 6.08694 8.61667 5.59961 10 5.59961C11.3833 5.59961 12.5627 6.08694 13.538 7.06161C14.5127 8.03694 15 9.21628 15 10.5996V12.0496C15 12.5329 15.15 12.9119 15.45 13.1866C15.75 13.4619 16.1 13.5996 16.5 13.5996C16.9 13.5996 17.25 13.4619 17.55 13.1866C17.85 12.9119 18 12.5329 18 12.0496V10.5996C18 8.41628 17.2123 6.53694 15.637 4.96161C14.0623 3.38694 12.1833 2.59961 10 2.59961C7.81667 2.59961 5.93733 3.38694 4.362 4.96161C2.78733 6.53694 2 8.41628 2 10.5996C2 12.7829 2.78733 14.6619 4.362 16.2366C5.93733 17.8119 7.81667 18.5996 10 18.5996H14C14.2833 18.5996 14.5207 18.6956 14.712 18.8876C14.904 19.0789 15 19.3163 15 19.5996C15 19.8829 14.904 20.1203 14.712 20.3116C14.5207 20.5036 14.2833 20.5996 14 20.5996H10ZM10 13.5996C10.8333 13.5996 11.5417 13.3079 12.125 12.7246C12.7083 12.1413 13 11.4329 13 10.5996C13 9.76628 12.7083 9.05794 12.125 8.47461C11.5417 7.89128 10.8333 7.59961 10 7.59961C9.16667 7.59961 8.45833 7.89128 7.875 8.47461C7.29167 9.05794 7 9.76628 7 10.5996C7 11.4329 7.29167 12.1413 7.875 12.7246C8.45833 13.3079 9.16667 13.5996 10 13.5996Z" fill="black"/>
</svg>
