<svg width="32" height="32" viewBox="0 0 32 32" fill="none" xmlns="http://www.w3.org/2000/svg">
<path d="M11.625 8.5C11.625 8.87084 11.515 9.23335 11.309 9.54169C11.103 9.85004 10.8101 10.0904 10.4675 10.2323C10.1249 10.3742 9.74792 10.4113 9.3842 10.339C9.02049 10.2666 8.6864 10.088 8.42417 9.82583C8.16195 9.5636 7.98337 9.22951 7.91103 8.8658C7.83868 8.50208 7.87581 8.12508 8.01773 7.78247C8.15964 7.43986 8.39996 7.14702 8.70831 6.94099C9.01665 6.73497 9.37916 6.625 9.75 6.625C10.2473 6.625 10.7242 6.82254 11.0758 7.17417C11.4275 7.52581 11.625 8.00272 11.625 8.5ZM31.625 2.875V29.125C31.625 29.788 31.3616 30.4239 30.8928 30.8928C30.4239 31.3616 29.788 31.625 29.125 31.625H2.875C2.21196 31.625 1.57607 31.3616 1.10723 30.8928C0.638392 30.4239 0.375 29.788 0.375 29.125V2.875C0.375 2.21196 0.638392 1.57607 1.10723 1.10723C1.57607 0.638392 2.21196 0.375 2.875 0.375H29.125C29.788 0.375 30.4239 0.638392 30.8928 1.10723C31.3616 1.57607 31.625 2.21196 31.625 2.875ZM29.125 29.125V2.875H2.875V29.125H29.125ZM9.75 12.25C9.41848 12.25 9.10054 12.3817 8.86612 12.6161C8.6317 12.8505 8.5 13.1685 8.5 13.5V23.5C8.5 23.8315 8.6317 24.1495 8.86612 24.3839C9.10054 24.6183 9.41848 24.75 9.75 24.75C10.0815 24.75 10.3995 24.6183 10.6339 24.3839C10.8683 24.1495 11 23.8315 11 23.5V13.5C11 13.1685 10.8683 12.8505 10.6339 12.6161C10.3995 12.3817 10.0815 12.25 9.75 12.25ZM19.125 12.25C17.9997 12.2499 16.9002 12.5874 15.9688 13.2188C15.9004 12.9188 15.7238 12.6546 15.4729 12.4767C15.2219 12.2988 14.9142 12.2197 14.6085 12.2545C14.3029 12.2893 14.0208 12.4356 13.8163 12.6654C13.6117 12.8952 13.4991 13.1924 13.5 13.5V23.5C13.5 23.8315 13.6317 24.1495 13.8661 24.3839C14.1005 24.6183 14.4185 24.75 14.75 24.75C15.0815 24.75 15.3995 24.6183 15.6339 24.3839C15.8683 24.1495 16 23.8315 16 23.5V17.875C16 17.0462 16.3292 16.2513 16.9153 15.6653C17.5013 15.0792 18.2962 14.75 19.125 14.75C19.9538 14.75 20.7487 15.0792 21.3347 15.6653C21.9208 16.2513 22.25 17.0462 22.25 17.875V23.5C22.25 23.8315 22.3817 24.1495 22.6161 24.3839C22.8505 24.6183 23.1685 24.75 23.5 24.75C23.8315 24.75 24.1495 24.6183 24.3839 24.3839C24.6183 24.1495 24.75 23.8315 24.75 23.5V17.875C24.75 16.3832 24.1574 14.9524 23.1025 13.8975C22.0476 12.8426 20.6168 12.25 19.125 12.25Z" fill="#002639"/>
</svg>
