<svg width="14" height="21" viewBox="0 0 14 21" fill="none" xmlns="http://www.w3.org/2000/svg">
<path d="M7 5.09961C7.66304 5.09961 8.29893 5.363 8.76777 5.83184C9.23661 6.30068 9.5 6.93657 9.5 7.59961C9.5 7.92791 9.43534 8.253 9.3097 8.55632C9.18406 8.85963 8.99991 9.13523 8.76777 9.36738C8.53562 9.59952 8.26002 9.78367 7.95671 9.90931C7.65339 10.0349 7.3283 10.0996 7 10.0996C6.33696 10.0996 5.70107 9.83622 5.23223 9.36738C4.76339 8.89854 4.5 8.26265 4.5 7.59961C4.5 6.93657 4.76339 6.30068 5.23223 5.83184C5.70107 5.363 6.33696 5.09961 7 5.09961ZM7 0.599609C8.85652 0.599609 10.637 1.33711 11.9497 2.64986C13.2625 3.96262 14 5.74309 14 7.59961C14 12.8496 7 20.5996 7 20.5996C7 20.5996 0 12.8496 0 7.59961C0 5.74309 0.737498 3.96262 2.05025 2.64986C3.36301 1.33711 5.14348 0.599609 7 0.599609ZM7 2.59961C5.67392 2.59961 4.40215 3.12639 3.46447 4.06408C2.52678 5.00176 2 6.27353 2 7.59961C2 8.59961 2 10.5996 7 17.3096C12 10.5996 12 8.59961 12 7.59961C12 6.27353 11.4732 5.00176 10.5355 4.06408C9.59785 3.12639 8.32608 2.59961 7 2.59961Z" fill="black"/>
</svg>
