<svg width="18" height="19" viewBox="0 0 18 19" fill="none" xmlns="http://www.w3.org/2000/svg">
<path d="M16 9.59961C16 7.64961 15.3207 5.99528 13.962 4.63661C12.604 3.27861 10.95 2.59961 9 2.59961V0.599609C10.25 0.599609 11.421 0.836943 12.513 1.31161C13.6043 1.78694 14.5543 2.42861 15.363 3.23661C16.171 4.04528 16.8127 4.99528 17.288 6.08661C17.7627 7.17861 18 8.34961 18 9.59961H16ZM12 9.59961C12 8.76628 11.7083 8.05794 11.125 7.47461C10.5417 6.89128 9.83333 6.59961 9 6.59961V4.59961C10.3833 4.59961 11.5627 5.08694 12.538 6.06161C13.5127 7.03694 14 8.21628 14 9.59961H12ZM16.95 18.5996C14.8 18.5996 12.7043 18.1203 10.663 17.1616C8.621 16.2036 6.81267 14.9369 5.238 13.3616C3.66267 11.7869 2.396 9.97861 1.438 7.93661C0.479334 5.89528 0 3.79961 0 1.64961C0 1.34961 0.0999999 1.09961 0.3 0.899609C0.5 0.699609 0.75 0.599609 1.05 0.599609H5.1C5.33333 0.599609 5.54167 0.674609 5.725 0.824609C5.90833 0.974609 6.01667 1.16628 6.05 1.39961L6.7 4.89961C6.73333 5.13294 6.72933 5.34528 6.688 5.53661C6.646 5.72861 6.55 5.89961 6.4 6.04961L3.975 8.49961C4.675 9.69961 5.55433 10.8246 6.613 11.8746C7.671 12.9246 8.83333 13.8329 10.1 14.5996L12.45 12.2496C12.6 12.0996 12.796 11.9869 13.038 11.9116C13.2793 11.8369 13.5167 11.8163 13.75 11.8496L17.2 12.5496C17.4333 12.5996 17.625 12.7119 17.775 12.8866C17.925 13.0619 18 13.2663 18 13.4996V17.5496C18 17.8496 17.9 18.0996 17.7 18.2996C17.5 18.4996 17.25 18.5996 16.95 18.5996ZM3.025 6.59961L4.675 4.94961L4.25 2.59961H2.025C2.10833 3.28294 2.225 3.95794 2.375 4.62461C2.525 5.29128 2.74167 5.94961 3.025 6.59961ZM11.975 15.5496C12.625 15.8329 13.2877 16.0579 13.963 16.2246C14.6377 16.3913 15.3167 16.4996 16 16.5496V14.3496L13.65 13.8746L11.975 15.5496Z" fill="black"/>
</svg>
